<mxfile host="Electron" modified="2023-08-24T07:52:23.126Z" agent="Mozilla/5.0 (Windows NT 10.0; Win64; x64) AppleWebKit/537.36 (KHTML, like Gecko) draw.io/21.6.8 Chrome/114.0.5735.289 Electron/25.5.0 Safari/537.36" etag="KovQmZN5SpyPgqAeXQXk" version="21.6.8" type="device">
  <diagram name="第 1 页" id="ztJVkRD1ZTPdCT4OaXOa">
    <mxGraphModel dx="1020" dy="595" grid="1" gridSize="10" guides="1" tooltips="1" connect="1" arrows="1" fold="1" page="1" pageScale="1" pageWidth="827" pageHeight="1169" math="0" shadow="0">
      <root>
        <mxCell id="0" />
        <mxCell id="1" parent="0" />
        <mxCell id="2QvX6kYLDLws9FtZY6sG-1" value="ap-southeast-3" style="points=[[0,0],[0.25,0],[0.5,0],[0.75,0],[1,0],[1,0.25],[1,0.5],[1,0.75],[1,1],[0.75,1],[0.5,1],[0.25,1],[0,1],[0,0.75],[0,0.5],[0,0.25]];outlineConnect=0;gradientColor=none;html=1;whiteSpace=wrap;fontSize=12;fontStyle=0;container=1;pointerEvents=0;collapsible=0;recursiveResize=0;shape=mxgraph.aws4.group;grIcon=mxgraph.aws4.group_region;strokeColor=#147EBA;fillColor=none;verticalAlign=top;align=left;spacingLeft=30;fontColor=#147EBA;dashed=1;" parent="1" vertex="1">
          <mxGeometry y="120" width="360" height="440" as="geometry" />
        </mxCell>
        <mxCell id="2QvX6kYLDLws9FtZY6sG-3" value="ucs-singapore" style="points=[[0,0],[0.25,0],[0.5,0],[0.75,0],[1,0],[1,0.25],[1,0.5],[1,0.75],[1,1],[0.75,1],[0.5,1],[0.25,1],[0,1],[0,0.75],[0,0.5],[0,0.25]];outlineConnect=0;gradientColor=none;html=1;whiteSpace=wrap;fontSize=12;fontStyle=0;container=1;pointerEvents=0;collapsible=0;recursiveResize=0;shape=mxgraph.aws4.group;grIcon=mxgraph.aws4.group_vpc;strokeColor=#248814;fillColor=none;verticalAlign=top;align=left;spacingLeft=30;fontColor=#AAB7B8;dashed=0;" parent="2QvX6kYLDLws9FtZY6sG-1" vertex="1">
          <mxGeometry x="40" y="40" width="280" height="360" as="geometry" />
        </mxCell>
        <mxCell id="2QvX6kYLDLws9FtZY6sG-4" value="&lt;font style=&quot;font-size: 6px;&quot;&gt;ucs_singapore_cce_master&lt;/font&gt;" style="points=[[0,0],[0.25,0],[0.5,0],[0.75,0],[1,0],[1,0.25],[1,0.5],[1,0.75],[1,1],[0.75,1],[0.5,1],[0.25,1],[0,1],[0,0.75],[0,0.5],[0,0.25]];outlineConnect=0;gradientColor=none;html=1;whiteSpace=wrap;fontSize=12;fontStyle=0;container=1;pointerEvents=0;collapsible=0;recursiveResize=0;shape=mxgraph.aws4.group;grIcon=mxgraph.aws4.group_security_group;grStroke=0;strokeColor=#147EBA;fillColor=#E6F2F8;verticalAlign=top;align=left;spacingLeft=30;fontColor=#147EBA;dashed=0;" parent="2QvX6kYLDLws9FtZY6sG-3" vertex="1">
          <mxGeometry x="60" y="150" width="150" height="90" as="geometry" />
        </mxCell>
        <mxCell id="2QvX6kYLDLws9FtZY6sG-9" value="CCE Cluster Master" style="shape=image;verticalLabelPosition=bottom;labelBackgroundColor=default;verticalAlign=top;aspect=fixed;imageAspect=0;image=data:image/svg+xml,PHN2ZyB4bWxuczp4bGluaz0iaHR0cDovL3d3dy53My5vcmcvMTk5OS94bGluayIgeG1sbnM9Imh0dHA6Ly93d3cudzMub3JnLzIwMDAvc3ZnIiB4bWw6c3BhY2U9InByZXNlcnZlIiBzdHlsZT0iZW5hYmxlLWJhY2tncm91bmQ6bmV3IDAgMCA0OCA0ODsiIHZpZXdCb3g9IjAgMCA0OCA0OCIgeT0iMHB4IiB4PSIwcHgiIGlkPSLlm77lsYJfMSIgdmVyc2lvbj0iMS4xIj4mI3hhOzxzdHlsZSB0eXBlPSJ0ZXh0L2NzcyI+JiN4YTsJLnN0MHtmaWxsOiMwNjAwMDE7fSYjeGE7CS5zdDF7ZmlsbDojMDQwMDAwO30mI3hhOwkuc3Qye2ZpbGw6bm9uZTtzdHJva2U6IzAwMDAwMDtzdHJva2UtbWl0ZXJsaW1pdDoxMDt9JiN4YTsJLnN0M3tmaWxsOiMyMjE4MTU7fSYjeGE7CS5zdDR7ZmlsbDojMDgwMTAyO30mI3hhOwkuc3Q1e2ZpbGw6bm9uZTtzdHJva2U6IzAwMDAwMDtzdHJva2Utd2lkdGg6MjtzdHJva2UtbGluZWNhcDpyb3VuZDtzdHJva2UtbGluZWpvaW46cm91bmQ7c3Ryb2tlLW1pdGVybGltaXQ6MTA7fSYjeGE7CS5zdDZ7ZmlsbDojMDcwMDAxO30mI3hhOzwvc3R5bGU+JiN4YTs8cGF0aCBkPSJNMzkuNywyMi4xTDI2LjEsOC40Yy0wLjYtMC42LTEuMy0wLjktMi4xLTAuOXMtMS41LDAuMy0yLjEsMC45TDguMywyMi4xYy0xLDEtMSwyLjcsMCwzLjdsMTMuOSwxNGMwLjUsMC41LDEuMiwwLjgsMS44LDAuOCYjMTA7JiM5O3MxLjMtMC4zLDEuOC0wLjhsMTMuOS0xNEM0MC44LDI0LjcsNDAuOCwyMy4xLDM5LjcsMjIuMXogTTM4LjcsMjQuOGwtMTMuOSwxNGMtMC4yLDAuMi0wLjUsMC4zLTAuOCwwLjNzLTAuNi0wLjEtMC44LTAuM2wtMTMuOS0xNCYjMTA7JiM5O2MtMC41LTAuNS0wLjUtMS4yLDAtMS43TDIyLjksOS40YzAuMy0wLjMsMC43LTAuNSwxLjEtMC41czAuOCwwLjIsMS4xLDAuNWwxMy42LDEzLjdDMzkuMiwyMy41LDM5LjIsMjQuMywzOC43LDI0Ljh6Ii8+JiN4YTs8cGF0aCBkPSJNMywxN2MwLjYsMCwxLTAuNCwxLTFWNi45QzQsNS4zLDUuMyw0LDYuOSw0SDE2YzAuNiwwLDEtMC40LDEtMXMtMC40LTEtMS0xSDYuOUM0LjIsMiwyLDQuMiwyLDYuOVYxNkMyLDE2LjYsMi40LDE3LDMsMTd6JiMxMDsmIzk7IE00MS4xLDJIMzJjLTAuNiwwLTEsMC40LTEsMXMwLjQsMSwxLDFoOS4xQzQyLjcsNCw0NCw1LjMsNDQsNi45VjE2YzAsMC42LDAuNCwxLDEsMXMxLTAuNCwxLTFWNi45QzQ2LDQuMiw0My44LDIsNDEuMSwyeiBNNDUsMzEmIzEwOyYjOTtjLTAuNiwwLTEsMC40LTEsMXY5LjFjMCwxLjYtMS4zLDIuOS0yLjksMi45SDMyYy0wLjYsMC0xLDAuNC0xLDFzMC40LDEsMSwxaDkuMWMyLjcsMCw0LjktMi4yLDQuOS00LjlWMzJDNDYsMzEuNCw0NS42LDMxLDQ1LDMxeiYjMTA7JiM5OyBNMTYsNDRINi45QzUuMyw0NCw0LDQyLjcsNCw0MS4xVjMyYzAtMC42LTAuNC0xLTEtMXMtMSwwLjQtMSwxdjkuMUMyLDQzLjgsNC4yLDQ2LDYuOSw0NkgxNmMwLjYsMCwxLTAuNCwxLTFTMTYuNiw0NCwxNiw0NHoiLz4mI3hhOzwvc3ZnPg==;" parent="2QvX6kYLDLws9FtZY6sG-4" vertex="1">
          <mxGeometry x="41" y="26" width="38" height="38" as="geometry" />
        </mxCell>
        <mxCell id="2QvX6kYLDLws9FtZY6sG-5" value="&lt;font style=&quot;font-size: 6px;&quot;&gt;ucs_singapore_elb&lt;/font&gt;" style="points=[[0,0],[0.25,0],[0.5,0],[0.75,0],[1,0],[1,0.25],[1,0.5],[1,0.75],[1,1],[0.75,1],[0.5,1],[0.25,1],[0,1],[0,0.75],[0,0.5],[0,0.25]];outlineConnect=0;gradientColor=none;html=1;whiteSpace=wrap;fontSize=12;fontStyle=0;container=1;pointerEvents=0;collapsible=0;recursiveResize=0;shape=mxgraph.aws4.group;grIcon=mxgraph.aws4.group_security_group;grStroke=0;strokeColor=#147EBA;fillColor=#E6F2F8;verticalAlign=top;align=left;spacingLeft=30;fontColor=#147EBA;dashed=0;" parent="2QvX6kYLDLws9FtZY6sG-3" vertex="1">
          <mxGeometry x="150" y="40" width="100" height="90" as="geometry" />
        </mxCell>
        <mxCell id="2QvX6kYLDLws9FtZY6sG-8" value="ELB" style="shape=image;verticalLabelPosition=bottom;labelBackgroundColor=default;verticalAlign=top;aspect=fixed;imageAspect=0;image=data:image/svg+xml,PHN2ZyB4bWxuczp4bGluaz0iaHR0cDovL3d3dy53My5vcmcvMTk5OS94bGluayIgeG1sbnM9Imh0dHA6Ly93d3cudzMub3JnLzIwMDAvc3ZnIiB4bWw6c3BhY2U9InByZXNlcnZlIiBzdHlsZT0iZW5hYmxlLWJhY2tncm91bmQ6bmV3IDAgMCA0OCA0ODsiIHZpZXdCb3g9IjAgMCA0OCA0OCIgeT0iMHB4IiB4PSIwcHgiIGlkPSLlm77lsYJfMSIgdmVyc2lvbj0iMS4xIj4mI3hhOzxzdHlsZSB0eXBlPSJ0ZXh0L2NzcyI+JiN4YTsJLnN0MHtmaWxsOiMwNjAwMDE7fSYjeGE7CS5zdDF7ZmlsbDojMDQwMDAwO30mI3hhOwkuc3Qye2ZpbGw6bm9uZTtzdHJva2U6IzAwMDAwMDtzdHJva2UtbWl0ZXJsaW1pdDoxMDt9JiN4YTsJLnN0M3tmaWxsOiMyMjE4MTU7fSYjeGE7CS5zdDR7ZmlsbDojMDgwMTAyO30mI3hhOwkuc3Q1e2ZpbGw6bm9uZTtzdHJva2U6IzAwMDAwMDtzdHJva2Utd2lkdGg6MjtzdHJva2UtbGluZWNhcDpyb3VuZDtzdHJva2UtbGluZWpvaW46cm91bmQ7c3Ryb2tlLW1pdGVybGltaXQ6MTA7fSYjeGE7CS5zdDZ7ZmlsbDojMDcwMDAxO30mI3hhOzwvc3R5bGU+JiN4YTs8cGF0aCBkPSJNNDMsMzAuNGMtMC4zLDAtMC41LDAtMC44LDAuMUwyNi43LDcuN2MwLjUtMC42LDAuOS0xLjQsMC45LTIuM0MyNy42LDMuNiwyNiwyLDI0LDJjLTIsMC0zLjYsMS42LTMuNiwzLjUmIzEwOyYjOTtjMCwwLjksMC40LDEuNywwLjksMi4zTDUuOCwzMC41Yy0wLjMtMC4xLTAuNS0wLjEtMC44LTAuMWMtMS42LDAtMywxLjMtMywyLjljMCwxLjYsMS4zLDIuOSwzLDIuOWMwLjQsMCwwLjgtMC4xLDEuMi0wLjNsMTQuMyw2LjgmIzEwOyYjOTtjMC4xLDEuOCwxLjYsMy4zLDMuNSwzLjNjMS45LDAsMy41LTEuNSwzLjYtMy4zbDE0LjMtNi44YzAuNCwwLjIsMC44LDAuMiwxLjIsMC4yYzEuNiwwLDMtMS4zLDMtMi45QzQ2LDMxLjcsNDQuNywzMC40LDQzLDMwLjR6JiMxMDsmIzk7IE00MC4xLDMzLjNjMCwwLjMsMC4xLDAuNiwwLjEsMC45bC0xMy40LDYuM2MtMC40LTAuNS0xLTEtMS43LTEuMlY4LjdjMC4yLTAuMSwwLjQtMC4yLDAuNi0wLjNMNDEuMiwzMSYjMTA7JiM5O0M0MC41LDMxLjUsNDAuMSwzMi4zLDQwLjEsMzMuM3ogTTIyLjMsOC41YzAuMiwwLjEsMC4zLDAuMiwwLjUsMC4ydjMwLjVjLTAuNywwLjItMS4yLDAuNy0xLjcsMS4yTDcuOCwzNC4xJiMxMDsmIzk7YzAuMS0wLjMsMC4xLTAuNSwwLjEtMC44YzAtMC45LTAuNC0xLjctMS4xLTIuMkwyMi4zLDguNXogTTMuMiwzMy4zYzAtMSwwLjgtMS43LDEuOC0xLjdzMS44LDAuOCwxLjgsMS43QzYuOCwzNC4yLDYsMzUsNSwzNSYjMTA7JiM5O1MzLjIsMzQuMiwzLjIsMzMuM3ogTTI0LDQ0LjhjLTEuMywwLTIuNC0xLTIuNC0yLjNjMC0xLjMsMS4xLTIuMywyLjQtMi4zczIuNCwxLDIuNCwyLjNDMjYuNCw0My44LDI1LjMsNDQuOCwyNCw0NC44eiBNNDMsMzUmIzEwOyYjOTtjLTEsMC0xLjgtMC44LTEuOC0xLjdjMC0xLDAuOC0xLjcsMS44LTEuN3MxLjgsMC44LDEuOCwxLjdDNDQuOCwzNC4yLDQ0LDM1LDQzLDM1eiIvPiYjeGE7PC9zdmc+;" parent="2QvX6kYLDLws9FtZY6sG-5" vertex="1">
          <mxGeometry x="31" y="26" width="38" height="38" as="geometry" />
        </mxCell>
        <mxCell id="2QvX6kYLDLws9FtZY6sG-6" value="&lt;font style=&quot;font-size: 6px;&quot;&gt;ucs_singapore_cce_pod&lt;/font&gt;" style="points=[[0,0],[0.25,0],[0.5,0],[0.75,0],[1,0],[1,0.25],[1,0.5],[1,0.75],[1,1],[0.75,1],[0.5,1],[0.25,1],[0,1],[0,0.75],[0,0.5],[0,0.25]];outlineConnect=0;gradientColor=none;html=1;whiteSpace=wrap;fontSize=12;fontStyle=0;container=1;pointerEvents=0;collapsible=0;recursiveResize=0;shape=mxgraph.aws4.group;grIcon=mxgraph.aws4.group_security_group;grStroke=0;strokeColor=#147EBA;fillColor=#E6F2F8;verticalAlign=top;align=left;spacingLeft=30;fontColor=#147EBA;dashed=0;" parent="2QvX6kYLDLws9FtZY6sG-3" vertex="1">
          <mxGeometry x="20" y="40" width="100" height="90" as="geometry" />
        </mxCell>
        <mxCell id="2QvX6kYLDLws9FtZY6sG-7" value="CCE Cluster Node" style="shape=image;verticalLabelPosition=bottom;labelBackgroundColor=default;verticalAlign=top;aspect=fixed;imageAspect=0;image=data:image/svg+xml,PHN2ZyB4bWxuczp4bGluaz0iaHR0cDovL3d3dy53My5vcmcvMTk5OS94bGluayIgeG1sbnM9Imh0dHA6Ly93d3cudzMub3JnLzIwMDAvc3ZnIiB4bWw6c3BhY2U9InByZXNlcnZlIiBzdHlsZT0iZW5hYmxlLWJhY2tncm91bmQ6bmV3IDAgMCA0OCA0ODsiIHZpZXdCb3g9IjAgMCA0OCA0OCIgeT0iMHB4IiB4PSIwcHgiIGlkPSLlm77lsYJfMSIgdmVyc2lvbj0iMS4xIj4mI3hhOzxzdHlsZSB0eXBlPSJ0ZXh0L2NzcyI+JiN4YTsJLnN0MHtmaWxsOiMwNjAwMDE7fSYjeGE7CS5zdDF7ZmlsbDojMDQwMDAwO30mI3hhOwkuc3Qye2ZpbGw6bm9uZTtzdHJva2U6IzAwMDAwMDtzdHJva2UtbWl0ZXJsaW1pdDoxMDt9JiN4YTsJLnN0M3tmaWxsOiMyMjE4MTU7fSYjeGE7CS5zdDR7ZmlsbDojMDgwMTAyO30mI3hhOwkuc3Q1e2ZpbGw6bm9uZTtzdHJva2U6IzAwMDAwMDtzdHJva2Utd2lkdGg6MjtzdHJva2UtbGluZWNhcDpyb3VuZDtzdHJva2UtbGluZWpvaW46cm91bmQ7c3Ryb2tlLW1pdGVybGltaXQ6MTA7fSYjeGE7CS5zdDZ7ZmlsbDojMDcwMDAxO30mI3hhOzwvc3R5bGU+JiN4YTs8cGF0aCBkPSJNMzkuNywyMi4xTDI2LjEsOC40Yy0wLjYtMC42LTEuMy0wLjktMi4xLTAuOXMtMS41LDAuMy0yLjEsMC45TDguMywyMi4xYy0xLDEtMSwyLjcsMCwzLjdsMTMuOSwxNGMwLjUsMC41LDEuMiwwLjgsMS44LDAuOCYjMTA7JiM5O3MxLjMtMC4zLDEuOC0wLjhsMTMuOS0xNEM0MC44LDI0LjcsNDAuOCwyMy4xLDM5LjcsMjIuMXogTTM4LjcsMjQuOGwtMTMuOSwxNGMtMC4yLDAuMi0wLjUsMC4zLTAuOCwwLjNzLTAuNi0wLjEtMC44LTAuM2wtMTMuOS0xNCYjMTA7JiM5O2MtMC41LTAuNS0wLjUtMS4yLDAtMS43TDIyLjksOS40YzAuMy0wLjMsMC43LTAuNSwxLjEtMC41czAuOCwwLjIsMS4xLDAuNWwxMy42LDEzLjdDMzkuMiwyMy41LDM5LjIsMjQuMywzOC43LDI0Ljh6Ii8+JiN4YTs8cGF0aCBkPSJNMywxN2MwLjYsMCwxLTAuNCwxLTFWNi45QzQsNS4zLDUuMyw0LDYuOSw0SDE2YzAuNiwwLDEtMC40LDEtMXMtMC40LTEtMS0xSDYuOUM0LjIsMiwyLDQuMiwyLDYuOVYxNkMyLDE2LjYsMi40LDE3LDMsMTd6JiMxMDsmIzk7IE00MS4xLDJIMzJjLTAuNiwwLTEsMC40LTEsMXMwLjQsMSwxLDFoOS4xQzQyLjcsNCw0NCw1LjMsNDQsNi45VjE2YzAsMC42LDAuNCwxLDEsMXMxLTAuNCwxLTFWNi45QzQ2LDQuMiw0My44LDIsNDEuMSwyeiBNNDUsMzEmIzEwOyYjOTtjLTAuNiwwLTEsMC40LTEsMXY5LjFjMCwxLjYtMS4zLDIuOS0yLjksMi45SDMyYy0wLjYsMC0xLDAuNC0xLDFzMC40LDEsMSwxaDkuMWMyLjcsMCw0LjktMi4yLDQuOS00LjlWMzJDNDYsMzEuNCw0NS42LDMxLDQ1LDMxeiYjMTA7JiM5OyBNMTYsNDRINi45QzUuMyw0NCw0LDQyLjcsNCw0MS4xVjMyYzAtMC42LTAuNC0xLTEtMXMtMSwwLjQtMSwxdjkuMUMyLDQzLjgsNC4yLDQ2LDYuOSw0NkgxNmMwLjYsMCwxLTAuNCwxLTFTMTYuNiw0NCwxNiw0NHoiLz4mI3hhOzwvc3ZnPg==;" parent="2QvX6kYLDLws9FtZY6sG-6" vertex="1">
          <mxGeometry x="31" y="26" width="38" height="38" as="geometry" />
        </mxCell>
        <mxCell id="2QvX6kYLDLws9FtZY6sG-10" value="ucs_singapore_test" style="points=[[0,0],[0.25,0],[0.5,0],[0.75,0],[1,0],[1,0.25],[1,0.5],[1,0.75],[1,1],[0.75,1],[0.5,1],[0.25,1],[0,1],[0,0.75],[0,0.5],[0,0.25]];outlineConnect=0;gradientColor=none;html=1;whiteSpace=wrap;fontSize=12;fontStyle=0;container=1;pointerEvents=0;collapsible=0;recursiveResize=0;shape=mxgraph.aws4.group;grIcon=mxgraph.aws4.group_security_group;grStroke=0;strokeColor=#248814;fillColor=#E9F3E6;verticalAlign=top;align=left;spacingLeft=30;fontColor=#248814;dashed=0;" parent="2QvX6kYLDLws9FtZY6sG-3" vertex="1">
          <mxGeometry x="60" y="260" width="145" height="90" as="geometry" />
        </mxCell>
        <mxCell id="2QvX6kYLDLws9FtZY6sG-11" value="ECS" style="shape=image;verticalLabelPosition=bottom;labelBackgroundColor=default;verticalAlign=top;aspect=fixed;imageAspect=0;image=data:image/svg+xml,PHN2ZyB4bWxuczp4bGluaz0iaHR0cDovL3d3dy53My5vcmcvMTk5OS94bGluayIgeG1sbnM9Imh0dHA6Ly93d3cudzMub3JnLzIwMDAvc3ZnIiB4bWw6c3BhY2U9InByZXNlcnZlIiBzdHlsZT0iZW5hYmxlLWJhY2tncm91bmQ6bmV3IDAgMCA0OCA0ODsiIHZpZXdCb3g9IjAgMCA0OCA0OCIgeT0iMHB4IiB4PSIwcHgiIGlkPSLlm77lsYJfMSIgdmVyc2lvbj0iMS4xIj4mI3hhOzxzdHlsZSB0eXBlPSJ0ZXh0L2NzcyI+JiN4YTsJLnN0MHtmaWxsOiMwNjAwMDE7fSYjeGE7CS5zdDF7ZmlsbDojMDQwMDAwO30mI3hhOwkuc3Qye2ZpbGw6bm9uZTtzdHJva2U6IzAwMDAwMDtzdHJva2UtbWl0ZXJsaW1pdDoxMDt9JiN4YTsJLnN0M3tmaWxsOiMyMjE4MTU7fSYjeGE7CS5zdDR7ZmlsbDojMDgwMTAyO30mI3hhOwkuc3Q1e2ZpbGw6bm9uZTtzdHJva2U6IzAwMDAwMDtzdHJva2Utd2lkdGg6MjtzdHJva2UtbGluZWNhcDpyb3VuZDtzdHJva2UtbGluZWpvaW46cm91bmQ7c3Ryb2tlLW1pdGVybGltaXQ6MTA7fSYjeGE7CS5zdDZ7ZmlsbDojMDcwMDAxO30mI3hhOzwvc3R5bGU+JiN4YTs8Zz4mI3hhOwk8Y2lyY2xlIHI9IjEuNSIgY3k9IjI2LjUiIGN4PSIzMS41IiBjbGFzcz0ic3QwIi8+JiN4YTsJPHBhdGggZD0iTTMzLjgsMzRIMTMuNGMtMC4zLDAtMC41LDAuMi0wLjUsMC41czAuMiwwLjUsMC41LDAuNWgyMC41YzAuMywwLDAuNS0wLjIsMC41LTAuNVMzNC4xLDM0LDMzLjgsMzR6IiBjbGFzcz0ic3QwIi8+JiN4YTsJPHBhdGggZD0iTTMxLjUsMjJoLTE1QzE0LDIyLDEyLDI0LDEyLDI2LjVzMiw0LjUsNC41LDQuNWgxNWMyLjUsMCw0LjUtMiw0LjUtNC41UzM0LDIyLDMxLjUsMjJ6IE0zMS41LDMwaC0xNSYjMTA7JiM5OyYjOTtjLTEuOSwwLTMuNS0xLjYtMy41LTMuNXMxLjYtMy41LDMuNS0zLjVoMTVjMS45LDAsMy41LDEuNiwzLjUsMy41UzMzLjQsMzAsMzEuNSwzMHoiIGNsYXNzPSJzdDAiLz4mI3hhOwk8cGF0aCBkPSJNMzUuMywxNi4xQzMzLjcsMTEuNCwyOS4zLDgsMjQsOHMtOS43LDMuNC0xMS4zLDguMUM2LjcsMTYuNywyLDIxLjgsMiwyOGMwLDYuNiw1LjQsMTIsMTIsMTJoMjAmIzEwOyYjOTsmIzk7YzYuNiwwLDEyLTUuNCwxMi0xMkM0NiwyMS44LDQxLjMsMTYuNywzNS4zLDE2LjF6IE0zNCwzOEgxNEM4LjUsMzgsNCwzMy41LDQsMjhjMC01LjEsMy44LTkuNCw4LjktOS45YzAuOC0wLjEsMS40LTAuNiwxLjctMS4zJiMxMDsmIzk7JiM5O2MxLjQtNCw1LjItNi43LDkuNC02LjdzOCwyLjcsOS40LDYuN2MwLjMsMC43LDAuOSwxLjIsMS43LDEuM2M1LjEsMC42LDguOSw0LjgsOC45LDkuOUM0NCwzMy41LDM5LjUsMzgsMzQsMzh6IiBjbGFzcz0ic3QwIi8+JiN4YTs8L2c+JiN4YTs8L3N2Zz4=;" parent="2QvX6kYLDLws9FtZY6sG-10" vertex="1">
          <mxGeometry x="51" y="26" width="38" height="38" as="geometry" />
        </mxCell>
        <mxCell id="2QvX6kYLDLws9FtZY6sG-12" value="" style="shape=image;verticalLabelPosition=bottom;labelBackgroundColor=default;verticalAlign=top;aspect=fixed;imageAspect=0;image=data:image/svg+xml,PHN2ZyB4bWxuczp4bGluaz0iaHR0cDovL3d3dy53My5vcmcvMTk5OS94bGluayIgeG1sbnM9Imh0dHA6Ly93d3cudzMub3JnLzIwMDAvc3ZnIiB4bWw6c3BhY2U9InByZXNlcnZlIiBzdHlsZT0iZW5hYmxlLWJhY2tncm91bmQ6bmV3IDAgMCA0OCA0ODsiIHZpZXdCb3g9IjAgMCA0OCA0OCIgeT0iMHB4IiB4PSIwcHgiIGlkPSLlm77lsYJfMSIgdmVyc2lvbj0iMS4xIj4mI3hhOzxzdHlsZSB0eXBlPSJ0ZXh0L2NzcyI+JiN4YTsJLnN0MHtmaWxsOiMwNDAwMDA7fSYjeGE7CS5zdDF7ZmlsbDojMDYwMDAxO30mI3hhOwkuc3Qye2ZpbGw6IzA4MDEwMzt9JiN4YTs8L3N0eWxlPiYjeGE7PHBhdGggZD0iTTI0LDI0aDYuNWMyLjUsMCw0LjUtMiw0LjUtNC41UzMzLDE1LDMwLjUsMTVIMjN2MTZoMVYyNHogTTI0LDE2aDYuNWMxLjksMCwzLjUsMS42LDMuNSwzLjVjMCwxLjktMS42LDMuNS0zLjUsMy41SDI0VjE2eiYjMTA7JiM5OyBNMjQsMkMxMS44LDIsMiwxMS44LDIsMjRzOS44LDIyLDIyLDIyczIyLTkuOCwyMi0yMlMzNi4yLDIsMjQsMnogTTI0LDQ0QzEzLDQ0LDQsMzUsNCwyNEM0LDEzLDEzLDQsMjQsNHMyMCw5LDIwLDIwJiMxMDsmIzk7QzQ0LDM1LDM1LDQ0LDI0LDQ0eiBNMTgsMTVoLTF2MTZoMVYxNXogTTI0LDM5Yy00LjEsMC03LjgtMS41LTEwLjYtNC40bC0wLjcsMC43YzMsMyw3LDQuNiwxMS40LDQuNnM4LjQtMS43LDExLjQtNC42bC0wLjctMC43JiMxMDsmIzk7QzMxLjgsMzcuNSwyOC4xLDM5LDI0LDM5eiIvPiYjeGE7PC9zdmc+;" parent="2QvX6kYLDLws9FtZY6sG-3" vertex="1">
          <mxGeometry x="210" y="187" width="28" height="28" as="geometry" />
        </mxCell>
        <mxCell id="2QvX6kYLDLws9FtZY6sG-49" style="edgeStyle=orthogonalEdgeStyle;curved=1;rounded=0;orthogonalLoop=1;jettySize=auto;html=1;entryX=0.5;entryY=1;entryDx=0;entryDy=0;fillColor=#008a00;strokeColor=#005700;strokeWidth=2;dashed=1;dashPattern=8 8;" parent="2QvX6kYLDLws9FtZY6sG-3" source="2QvX6kYLDLws9FtZY6sG-10" target="2QvX6kYLDLws9FtZY6sG-13" edge="1">
          <mxGeometry relative="1" as="geometry">
            <Array as="points">
              <mxPoint x="414" y="330" />
            </Array>
          </mxGeometry>
        </mxCell>
        <mxCell id="2QvX6kYLDLws9FtZY6sG-52" value="VPC Endpoint" style="edgeLabel;html=1;align=center;verticalAlign=middle;resizable=0;points=[];" parent="2QvX6kYLDLws9FtZY6sG-49" vertex="1" connectable="0">
          <mxGeometry x="0.0911" y="30" relative="1" as="geometry">
            <mxPoint as="offset" />
          </mxGeometry>
        </mxCell>
        <mxCell id="2QvX6kYLDLws9FtZY6sG-32" style="edgeStyle=orthogonalEdgeStyle;curved=1;rounded=0;orthogonalLoop=1;jettySize=auto;html=1;entryX=0.5;entryY=1;entryDx=0;entryDy=0;" parent="1" source="2QvX6kYLDLws9FtZY6sG-13" target="2QvX6kYLDLws9FtZY6sG-25" edge="1">
          <mxGeometry relative="1" as="geometry" />
        </mxCell>
        <mxCell id="2QvX6kYLDLws9FtZY6sG-45" style="edgeStyle=orthogonalEdgeStyle;curved=1;rounded=0;orthogonalLoop=1;jettySize=auto;html=1;entryX=1;entryY=0.75;entryDx=0;entryDy=0;strokeWidth=2;fillColor=#f8cecc;strokeColor=#b85450;" parent="1" source="2QvX6kYLDLws9FtZY6sG-13" target="2QvX6kYLDLws9FtZY6sG-12" edge="1">
          <mxGeometry relative="1" as="geometry" />
        </mxCell>
        <mxCell id="2QvX6kYLDLws9FtZY6sG-48" value="EIP" style="edgeLabel;html=1;align=center;verticalAlign=middle;resizable=0;points=[];" parent="2QvX6kYLDLws9FtZY6sG-45" vertex="1" connectable="0">
          <mxGeometry x="-0.3504" y="2" relative="1" as="geometry">
            <mxPoint as="offset" />
          </mxGeometry>
        </mxCell>
        <mxCell id="2QvX6kYLDLws9FtZY6sG-46" style="edgeStyle=orthogonalEdgeStyle;curved=1;rounded=0;orthogonalLoop=1;jettySize=auto;html=1;entryX=0;entryY=0.75;entryDx=0;entryDy=0;fillColor=#f8cecc;strokeColor=#b85450;strokeWidth=2;" parent="1" source="2QvX6kYLDLws9FtZY6sG-13" target="2QvX6kYLDLws9FtZY6sG-24" edge="1">
          <mxGeometry relative="1" as="geometry" />
        </mxCell>
        <mxCell id="2QvX6kYLDLws9FtZY6sG-47" value="EIP" style="edgeLabel;html=1;align=center;verticalAlign=middle;resizable=0;points=[];" parent="2QvX6kYLDLws9FtZY6sG-46" vertex="1" connectable="0">
          <mxGeometry x="-0.5274" y="-1" relative="1" as="geometry">
            <mxPoint as="offset" />
          </mxGeometry>
        </mxCell>
        <mxCell id="2QvX6kYLDLws9FtZY6sG-13" value="UCS" style="shape=image;verticalLabelPosition=middle;labelBackgroundColor=default;verticalAlign=middle;aspect=fixed;imageAspect=0;image=data:image/svg+xml,PHN2ZyB4bWxuczp4bGluaz0iaHR0cDovL3d3dy53My5vcmcvMTk5OS94bGluayIgeG1sbnM9Imh0dHA6Ly93d3cudzMub3JnLzIwMDAvc3ZnIiB4bWw6c3BhY2U9InByZXNlcnZlIiBzdHlsZT0iZW5hYmxlLWJhY2tncm91bmQ6bmV3IDAgMCA0OCA0ODsiIHZpZXdCb3g9IjAgMCA0OCA0OCIgeT0iMHB4IiB4PSIwcHgiIGlkPSLlm77lsYJfMSIgdmVyc2lvbj0iMS4xIj4mI3hhOzxzdHlsZSB0eXBlPSJ0ZXh0L2NzcyI+JiN4YTsJLnN0MHtmaWxsOiMwNjAwMDE7fSYjeGE7CS5zdDF7ZmlsbDojMDQwMDAwO30mI3hhOwkuc3Qye2ZpbGw6bm9uZTtzdHJva2U6IzAwMDAwMDtzdHJva2UtbWl0ZXJsaW1pdDoxMDt9JiN4YTsJLnN0M3tmaWxsOiMyMjE4MTU7fSYjeGE7CS5zdDR7ZmlsbDojMDgwMTAyO30mI3hhOwkuc3Q1e2ZpbGw6bm9uZTtzdHJva2U6IzAwMDAwMDtzdHJva2Utd2lkdGg6MjtzdHJva2UtbGluZWNhcDpyb3VuZDtzdHJva2UtbGluZWpvaW46cm91bmQ7c3Ryb2tlLW1pdGVybGltaXQ6MTA7fSYjeGE7CS5zdDZ7ZmlsbDojMDcwMDAxO30mI3hhOzwvc3R5bGU+JiN4YTs8cGF0aCBkPSJNMzkuNywyMi4xTDI2LjEsOC40Yy0wLjYtMC42LTEuMy0wLjktMi4xLTAuOXMtMS41LDAuMy0yLjEsMC45TDguMywyMi4xYy0xLDEtMSwyLjcsMCwzLjdsMTMuOSwxNGMwLjUsMC41LDEuMiwwLjgsMS44LDAuOCYjMTA7JiM5O3MxLjMtMC4zLDEuOC0wLjhsMTMuOS0xNEM0MC44LDI0LjcsNDAuOCwyMy4xLDM5LjcsMjIuMXogTTM4LjcsMjQuOGwtMTMuOSwxNGMtMC4yLDAuMi0wLjUsMC4zLTAuOCwwLjNzLTAuNi0wLjEtMC44LTAuM2wtMTMuOS0xNCYjMTA7JiM5O2MtMC41LTAuNS0wLjUtMS4yLDAtMS43TDIyLjksOS40YzAuMy0wLjMsMC43LTAuNSwxLjEtMC41czAuOCwwLjIsMS4xLDAuNWwxMy42LDEzLjdDMzkuMiwyMy41LDM5LjIsMjQuMywzOC43LDI0Ljh6Ii8+JiN4YTs8cGF0aCBkPSJNMywxN2MwLjYsMCwxLTAuNCwxLTFWNi45QzQsNS4zLDUuMyw0LDYuOSw0SDE2YzAuNiwwLDEtMC40LDEtMXMtMC40LTEtMS0xSDYuOUM0LjIsMiwyLDQuMiwyLDYuOVYxNkMyLDE2LjYsMi40LDE3LDMsMTd6JiMxMDsmIzk7IE00MS4xLDJIMzJjLTAuNiwwLTEsMC40LTEsMXMwLjQsMSwxLDFoOS4xQzQyLjcsNCw0NCw1LjMsNDQsNi45VjE2YzAsMC42LDAuNCwxLDEsMXMxLTAuNCwxLTFWNi45QzQ2LDQuMiw0My44LDIsNDEuMSwyeiBNNDUsMzEmIzEwOyYjOTtjLTAuNiwwLTEsMC40LTEsMXY5LjFjMCwxLjYtMS4zLDIuOS0yLjksMi45SDMyYy0wLjYsMC0xLDAuNC0xLDFzMC40LDEsMSwxaDkuMWMyLjcsMCw0LjktMi4yLDQuOS00LjlWMzJDNDYsMzEuNCw0NS42LDMxLDQ1LDMxeiYjMTA7JiM5OyBNMTYsNDRINi45QzUuMyw0NCw0LDQyLjcsNCw0MS4xVjMyYzAtMC42LTAuNC0xLTEtMXMtMSwwLjQtMSwxdjkuMUMyLDQzLjgsNC4yLDQ2LDYuOSw0NkgxNmMwLjYsMCwxLTAuNCwxLTFTMTYuNiw0NCwxNiw0NHoiLz4mI3hhOzwvc3ZnPg==;labelPosition=center;align=center;" parent="1" vertex="1">
          <mxGeometry x="425" y="330" width="58" height="58" as="geometry" />
        </mxCell>
        <mxCell id="2QvX6kYLDLws9FtZY6sG-14" value="ap-southeast-1" style="points=[[0,0],[0.25,0],[0.5,0],[0.75,0],[1,0],[1,0.25],[1,0.5],[1,0.75],[1,1],[0.75,1],[0.5,1],[0.25,1],[0,1],[0,0.75],[0,0.5],[0,0.25]];outlineConnect=0;gradientColor=none;html=1;whiteSpace=wrap;fontSize=12;fontStyle=0;container=1;pointerEvents=0;collapsible=0;recursiveResize=0;shape=mxgraph.aws4.group;grIcon=mxgraph.aws4.group_region;strokeColor=#147EBA;fillColor=none;verticalAlign=top;align=left;spacingLeft=30;fontColor=#147EBA;dashed=1;" parent="1" vertex="1">
          <mxGeometry x="560" y="120" width="360" height="440" as="geometry" />
        </mxCell>
        <mxCell id="2QvX6kYLDLws9FtZY6sG-15" value="ucs-hk" style="points=[[0,0],[0.25,0],[0.5,0],[0.75,0],[1,0],[1,0.25],[1,0.5],[1,0.75],[1,1],[0.75,1],[0.5,1],[0.25,1],[0,1],[0,0.75],[0,0.5],[0,0.25]];outlineConnect=0;gradientColor=none;html=1;whiteSpace=wrap;fontSize=12;fontStyle=0;container=1;pointerEvents=0;collapsible=0;recursiveResize=0;shape=mxgraph.aws4.group;grIcon=mxgraph.aws4.group_vpc;strokeColor=#248814;fillColor=none;verticalAlign=top;align=left;spacingLeft=30;fontColor=#AAB7B8;dashed=0;" parent="2QvX6kYLDLws9FtZY6sG-14" vertex="1">
          <mxGeometry x="40" y="40" width="280" height="360" as="geometry" />
        </mxCell>
        <mxCell id="2QvX6kYLDLws9FtZY6sG-16" value="&lt;font style=&quot;font-size: 6px;&quot;&gt;ucs_hk_cce_master&lt;/font&gt;" style="points=[[0,0],[0.25,0],[0.5,0],[0.75,0],[1,0],[1,0.25],[1,0.5],[1,0.75],[1,1],[0.75,1],[0.5,1],[0.25,1],[0,1],[0,0.75],[0,0.5],[0,0.25]];outlineConnect=0;gradientColor=none;html=1;whiteSpace=wrap;fontSize=12;fontStyle=0;container=1;pointerEvents=0;collapsible=0;recursiveResize=0;shape=mxgraph.aws4.group;grIcon=mxgraph.aws4.group_security_group;grStroke=0;strokeColor=#147EBA;fillColor=#E6F2F8;verticalAlign=top;align=left;spacingLeft=30;fontColor=#147EBA;dashed=0;" parent="2QvX6kYLDLws9FtZY6sG-15" vertex="1">
          <mxGeometry x="60" y="150" width="150" height="90" as="geometry" />
        </mxCell>
        <mxCell id="2QvX6kYLDLws9FtZY6sG-17" value="CCE Cluster Master" style="shape=image;verticalLabelPosition=bottom;labelBackgroundColor=default;verticalAlign=top;aspect=fixed;imageAspect=0;image=data:image/svg+xml,PHN2ZyB4bWxuczp4bGluaz0iaHR0cDovL3d3dy53My5vcmcvMTk5OS94bGluayIgeG1sbnM9Imh0dHA6Ly93d3cudzMub3JnLzIwMDAvc3ZnIiB4bWw6c3BhY2U9InByZXNlcnZlIiBzdHlsZT0iZW5hYmxlLWJhY2tncm91bmQ6bmV3IDAgMCA0OCA0ODsiIHZpZXdCb3g9IjAgMCA0OCA0OCIgeT0iMHB4IiB4PSIwcHgiIGlkPSLlm77lsYJfMSIgdmVyc2lvbj0iMS4xIj4mI3hhOzxzdHlsZSB0eXBlPSJ0ZXh0L2NzcyI+JiN4YTsJLnN0MHtmaWxsOiMwNjAwMDE7fSYjeGE7CS5zdDF7ZmlsbDojMDQwMDAwO30mI3hhOwkuc3Qye2ZpbGw6bm9uZTtzdHJva2U6IzAwMDAwMDtzdHJva2UtbWl0ZXJsaW1pdDoxMDt9JiN4YTsJLnN0M3tmaWxsOiMyMjE4MTU7fSYjeGE7CS5zdDR7ZmlsbDojMDgwMTAyO30mI3hhOwkuc3Q1e2ZpbGw6bm9uZTtzdHJva2U6IzAwMDAwMDtzdHJva2Utd2lkdGg6MjtzdHJva2UtbGluZWNhcDpyb3VuZDtzdHJva2UtbGluZWpvaW46cm91bmQ7c3Ryb2tlLW1pdGVybGltaXQ6MTA7fSYjeGE7CS5zdDZ7ZmlsbDojMDcwMDAxO30mI3hhOzwvc3R5bGU+JiN4YTs8cGF0aCBkPSJNMzkuNywyMi4xTDI2LjEsOC40Yy0wLjYtMC42LTEuMy0wLjktMi4xLTAuOXMtMS41LDAuMy0yLjEsMC45TDguMywyMi4xYy0xLDEtMSwyLjcsMCwzLjdsMTMuOSwxNGMwLjUsMC41LDEuMiwwLjgsMS44LDAuOCYjMTA7JiM5O3MxLjMtMC4zLDEuOC0wLjhsMTMuOS0xNEM0MC44LDI0LjcsNDAuOCwyMy4xLDM5LjcsMjIuMXogTTM4LjcsMjQuOGwtMTMuOSwxNGMtMC4yLDAuMi0wLjUsMC4zLTAuOCwwLjNzLTAuNi0wLjEtMC44LTAuM2wtMTMuOS0xNCYjMTA7JiM5O2MtMC41LTAuNS0wLjUtMS4yLDAtMS43TDIyLjksOS40YzAuMy0wLjMsMC43LTAuNSwxLjEtMC41czAuOCwwLjIsMS4xLDAuNWwxMy42LDEzLjdDMzkuMiwyMy41LDM5LjIsMjQuMywzOC43LDI0Ljh6Ii8+JiN4YTs8cGF0aCBkPSJNMywxN2MwLjYsMCwxLTAuNCwxLTFWNi45QzQsNS4zLDUuMyw0LDYuOSw0SDE2YzAuNiwwLDEtMC40LDEtMXMtMC40LTEtMS0xSDYuOUM0LjIsMiwyLDQuMiwyLDYuOVYxNkMyLDE2LjYsMi40LDE3LDMsMTd6JiMxMDsmIzk7IE00MS4xLDJIMzJjLTAuNiwwLTEsMC40LTEsMXMwLjQsMSwxLDFoOS4xQzQyLjcsNCw0NCw1LjMsNDQsNi45VjE2YzAsMC42LDAuNCwxLDEsMXMxLTAuNCwxLTFWNi45QzQ2LDQuMiw0My44LDIsNDEuMSwyeiBNNDUsMzEmIzEwOyYjOTtjLTAuNiwwLTEsMC40LTEsMXY5LjFjMCwxLjYtMS4zLDIuOS0yLjksMi45SDMyYy0wLjYsMC0xLDAuNC0xLDFzMC40LDEsMSwxaDkuMWMyLjcsMCw0LjktMi4yLDQuOS00LjlWMzJDNDYsMzEuNCw0NS42LDMxLDQ1LDMxeiYjMTA7JiM5OyBNMTYsNDRINi45QzUuMyw0NCw0LDQyLjcsNCw0MS4xVjMyYzAtMC42LTAuNC0xLTEtMXMtMSwwLjQtMSwxdjkuMUMyLDQzLjgsNC4yLDQ2LDYuOSw0NkgxNmMwLjYsMCwxLTAuNCwxLTFTMTYuNiw0NCwxNiw0NHoiLz4mI3hhOzwvc3ZnPg==;" parent="2QvX6kYLDLws9FtZY6sG-16" vertex="1">
          <mxGeometry x="41" y="26" width="38" height="38" as="geometry" />
        </mxCell>
        <mxCell id="2QvX6kYLDLws9FtZY6sG-18" value="&lt;font style=&quot;font-size: 6px;&quot;&gt;ucs_hk_elb&lt;/font&gt;" style="points=[[0,0],[0.25,0],[0.5,0],[0.75,0],[1,0],[1,0.25],[1,0.5],[1,0.75],[1,1],[0.75,1],[0.5,1],[0.25,1],[0,1],[0,0.75],[0,0.5],[0,0.25]];outlineConnect=0;gradientColor=none;html=1;whiteSpace=wrap;fontSize=12;fontStyle=0;container=1;pointerEvents=0;collapsible=0;recursiveResize=0;shape=mxgraph.aws4.group;grIcon=mxgraph.aws4.group_security_group;grStroke=0;strokeColor=#147EBA;fillColor=#E6F2F8;verticalAlign=top;align=left;spacingLeft=30;fontColor=#147EBA;dashed=0;" parent="2QvX6kYLDLws9FtZY6sG-15" vertex="1">
          <mxGeometry x="20" y="40" width="100" height="90" as="geometry" />
        </mxCell>
        <mxCell id="2QvX6kYLDLws9FtZY6sG-19" value="ELB" style="shape=image;verticalLabelPosition=bottom;labelBackgroundColor=default;verticalAlign=top;aspect=fixed;imageAspect=0;image=data:image/svg+xml,PHN2ZyB4bWxuczp4bGluaz0iaHR0cDovL3d3dy53My5vcmcvMTk5OS94bGluayIgeG1sbnM9Imh0dHA6Ly93d3cudzMub3JnLzIwMDAvc3ZnIiB4bWw6c3BhY2U9InByZXNlcnZlIiBzdHlsZT0iZW5hYmxlLWJhY2tncm91bmQ6bmV3IDAgMCA0OCA0ODsiIHZpZXdCb3g9IjAgMCA0OCA0OCIgeT0iMHB4IiB4PSIwcHgiIGlkPSLlm77lsYJfMSIgdmVyc2lvbj0iMS4xIj4mI3hhOzxzdHlsZSB0eXBlPSJ0ZXh0L2NzcyI+JiN4YTsJLnN0MHtmaWxsOiMwNjAwMDE7fSYjeGE7CS5zdDF7ZmlsbDojMDQwMDAwO30mI3hhOwkuc3Qye2ZpbGw6bm9uZTtzdHJva2U6IzAwMDAwMDtzdHJva2UtbWl0ZXJsaW1pdDoxMDt9JiN4YTsJLnN0M3tmaWxsOiMyMjE4MTU7fSYjeGE7CS5zdDR7ZmlsbDojMDgwMTAyO30mI3hhOwkuc3Q1e2ZpbGw6bm9uZTtzdHJva2U6IzAwMDAwMDtzdHJva2Utd2lkdGg6MjtzdHJva2UtbGluZWNhcDpyb3VuZDtzdHJva2UtbGluZWpvaW46cm91bmQ7c3Ryb2tlLW1pdGVybGltaXQ6MTA7fSYjeGE7CS5zdDZ7ZmlsbDojMDcwMDAxO30mI3hhOzwvc3R5bGU+JiN4YTs8cGF0aCBkPSJNNDMsMzAuNGMtMC4zLDAtMC41LDAtMC44LDAuMUwyNi43LDcuN2MwLjUtMC42LDAuOS0xLjQsMC45LTIuM0MyNy42LDMuNiwyNiwyLDI0LDJjLTIsMC0zLjYsMS42LTMuNiwzLjUmIzEwOyYjOTtjMCwwLjksMC40LDEuNywwLjksMi4zTDUuOCwzMC41Yy0wLjMtMC4xLTAuNS0wLjEtMC44LTAuMWMtMS42LDAtMywxLjMtMywyLjljMCwxLjYsMS4zLDIuOSwzLDIuOWMwLjQsMCwwLjgtMC4xLDEuMi0wLjNsMTQuMyw2LjgmIzEwOyYjOTtjMC4xLDEuOCwxLjYsMy4zLDMuNSwzLjNjMS45LDAsMy41LTEuNSwzLjYtMy4zbDE0LjMtNi44YzAuNCwwLjIsMC44LDAuMiwxLjIsMC4yYzEuNiwwLDMtMS4zLDMtMi45QzQ2LDMxLjcsNDQuNywzMC40LDQzLDMwLjR6JiMxMDsmIzk7IE00MC4xLDMzLjNjMCwwLjMsMC4xLDAuNiwwLjEsMC45bC0xMy40LDYuM2MtMC40LTAuNS0xLTEtMS43LTEuMlY4LjdjMC4yLTAuMSwwLjQtMC4yLDAuNi0wLjNMNDEuMiwzMSYjMTA7JiM5O0M0MC41LDMxLjUsNDAuMSwzMi4zLDQwLjEsMzMuM3ogTTIyLjMsOC41YzAuMiwwLjEsMC4zLDAuMiwwLjUsMC4ydjMwLjVjLTAuNywwLjItMS4yLDAuNy0xLjcsMS4yTDcuOCwzNC4xJiMxMDsmIzk7YzAuMS0wLjMsMC4xLTAuNSwwLjEtMC44YzAtMC45LTAuNC0xLjctMS4xLTIuMkwyMi4zLDguNXogTTMuMiwzMy4zYzAtMSwwLjgtMS43LDEuOC0xLjdzMS44LDAuOCwxLjgsMS43QzYuOCwzNC4yLDYsMzUsNSwzNSYjMTA7JiM5O1MzLjIsMzQuMiwzLjIsMzMuM3ogTTI0LDQ0LjhjLTEuMywwLTIuNC0xLTIuNC0yLjNjMC0xLjMsMS4xLTIuMywyLjQtMi4zczIuNCwxLDIuNCwyLjNDMjYuNCw0My44LDI1LjMsNDQuOCwyNCw0NC44eiBNNDMsMzUmIzEwOyYjOTtjLTEsMC0xLjgtMC44LTEuOC0xLjdjMC0xLDAuOC0xLjcsMS44LTEuN3MxLjgsMC44LDEuOCwxLjdDNDQuOCwzNC4yLDQ0LDM1LDQzLDM1eiIvPiYjeGE7PC9zdmc+;" parent="2QvX6kYLDLws9FtZY6sG-18" vertex="1">
          <mxGeometry x="31" y="20" width="44" height="44" as="geometry" />
        </mxCell>
        <mxCell id="2QvX6kYLDLws9FtZY6sG-24" value="" style="shape=image;verticalLabelPosition=bottom;labelBackgroundColor=default;verticalAlign=top;aspect=fixed;imageAspect=0;image=data:image/svg+xml,PHN2ZyB4bWxuczp4bGluaz0iaHR0cDovL3d3dy53My5vcmcvMTk5OS94bGluayIgeG1sbnM9Imh0dHA6Ly93d3cudzMub3JnLzIwMDAvc3ZnIiB4bWw6c3BhY2U9InByZXNlcnZlIiBzdHlsZT0iZW5hYmxlLWJhY2tncm91bmQ6bmV3IDAgMCA0OCA0ODsiIHZpZXdCb3g9IjAgMCA0OCA0OCIgeT0iMHB4IiB4PSIwcHgiIGlkPSLlm77lsYJfMSIgdmVyc2lvbj0iMS4xIj4mI3hhOzxzdHlsZSB0eXBlPSJ0ZXh0L2NzcyI+JiN4YTsJLnN0MHtmaWxsOiMwNDAwMDA7fSYjeGE7CS5zdDF7ZmlsbDojMDYwMDAxO30mI3hhOwkuc3Qye2ZpbGw6IzA4MDEwMzt9JiN4YTs8L3N0eWxlPiYjeGE7PHBhdGggZD0iTTI0LDI0aDYuNWMyLjUsMCw0LjUtMiw0LjUtNC41UzMzLDE1LDMwLjUsMTVIMjN2MTZoMVYyNHogTTI0LDE2aDYuNWMxLjksMCwzLjUsMS42LDMuNSwzLjVjMCwxLjktMS42LDMuNS0zLjUsMy41SDI0VjE2eiYjMTA7JiM5OyBNMjQsMkMxMS44LDIsMiwxMS44LDIsMjRzOS44LDIyLDIyLDIyczIyLTkuOCwyMi0yMlMzNi4yLDIsMjQsMnogTTI0LDQ0QzEzLDQ0LDQsMzUsNCwyNEM0LDEzLDEzLDQsMjQsNHMyMCw5LDIwLDIwJiMxMDsmIzk7QzQ0LDM1LDM1LDQ0LDI0LDQ0eiBNMTgsMTVoLTF2MTZoMVYxNXogTTI0LDM5Yy00LjEsMC03LjgtMS41LTEwLjYtNC40bC0wLjcsMC43YzMsMyw3LDQuNiwxMS40LDQuNnM4LjQtMS43LDExLjQtNC42bC0wLjctMC43JiMxMDsmIzk7QzMxLjgsMzcuNSwyOC4xLDM5LDI0LDM5eiIvPiYjeGE7PC9zdmc+;" parent="2QvX6kYLDLws9FtZY6sG-15" vertex="1">
          <mxGeometry x="32" y="187" width="28" height="28" as="geometry" />
        </mxCell>
        <mxCell id="2QvX6kYLDLws9FtZY6sG-20" value="&lt;font style=&quot;font-size: 6px;&quot;&gt;ucs_hk_cce_pod&lt;/font&gt;" style="points=[[0,0],[0.25,0],[0.5,0],[0.75,0],[1,0],[1,0.25],[1,0.5],[1,0.75],[1,1],[0.75,1],[0.5,1],[0.25,1],[0,1],[0,0.75],[0,0.5],[0,0.25]];outlineConnect=0;gradientColor=none;html=1;whiteSpace=wrap;fontSize=12;fontStyle=0;container=1;pointerEvents=0;collapsible=0;recursiveResize=0;shape=mxgraph.aws4.group;grIcon=mxgraph.aws4.group_security_group;grStroke=0;strokeColor=#147EBA;fillColor=#E6F2F8;verticalAlign=top;align=left;spacingLeft=30;fontColor=#147EBA;dashed=0;" parent="2QvX6kYLDLws9FtZY6sG-15" vertex="1">
          <mxGeometry x="160" y="40" width="100" height="90" as="geometry" />
        </mxCell>
        <mxCell id="2QvX6kYLDLws9FtZY6sG-21" value="CCE Cluster Node" style="shape=image;verticalLabelPosition=bottom;labelBackgroundColor=default;verticalAlign=top;aspect=fixed;imageAspect=0;image=data:image/svg+xml,PHN2ZyB4bWxuczp4bGluaz0iaHR0cDovL3d3dy53My5vcmcvMTk5OS94bGluayIgeG1sbnM9Imh0dHA6Ly93d3cudzMub3JnLzIwMDAvc3ZnIiB4bWw6c3BhY2U9InByZXNlcnZlIiBzdHlsZT0iZW5hYmxlLWJhY2tncm91bmQ6bmV3IDAgMCA0OCA0ODsiIHZpZXdCb3g9IjAgMCA0OCA0OCIgeT0iMHB4IiB4PSIwcHgiIGlkPSLlm77lsYJfMSIgdmVyc2lvbj0iMS4xIj4mI3hhOzxzdHlsZSB0eXBlPSJ0ZXh0L2NzcyI+JiN4YTsJLnN0MHtmaWxsOiMwNjAwMDE7fSYjeGE7CS5zdDF7ZmlsbDojMDQwMDAwO30mI3hhOwkuc3Qye2ZpbGw6bm9uZTtzdHJva2U6IzAwMDAwMDtzdHJva2UtbWl0ZXJsaW1pdDoxMDt9JiN4YTsJLnN0M3tmaWxsOiMyMjE4MTU7fSYjeGE7CS5zdDR7ZmlsbDojMDgwMTAyO30mI3hhOwkuc3Q1e2ZpbGw6bm9uZTtzdHJva2U6IzAwMDAwMDtzdHJva2Utd2lkdGg6MjtzdHJva2UtbGluZWNhcDpyb3VuZDtzdHJva2UtbGluZWpvaW46cm91bmQ7c3Ryb2tlLW1pdGVybGltaXQ6MTA7fSYjeGE7CS5zdDZ7ZmlsbDojMDcwMDAxO30mI3hhOzwvc3R5bGU+JiN4YTs8cGF0aCBkPSJNMzkuNywyMi4xTDI2LjEsOC40Yy0wLjYtMC42LTEuMy0wLjktMi4xLTAuOXMtMS41LDAuMy0yLjEsMC45TDguMywyMi4xYy0xLDEtMSwyLjcsMCwzLjdsMTMuOSwxNGMwLjUsMC41LDEuMiwwLjgsMS44LDAuOCYjMTA7JiM5O3MxLjMtMC4zLDEuOC0wLjhsMTMuOS0xNEM0MC44LDI0LjcsNDAuOCwyMy4xLDM5LjcsMjIuMXogTTM4LjcsMjQuOGwtMTMuOSwxNGMtMC4yLDAuMi0wLjUsMC4zLTAuOCwwLjNzLTAuNi0wLjEtMC44LTAuM2wtMTMuOS0xNCYjMTA7JiM5O2MtMC41LTAuNS0wLjUtMS4yLDAtMS43TDIyLjksOS40YzAuMy0wLjMsMC43LTAuNSwxLjEtMC41czAuOCwwLjIsMS4xLDAuNWwxMy42LDEzLjdDMzkuMiwyMy41LDM5LjIsMjQuMywzOC43LDI0Ljh6Ii8+JiN4YTs8cGF0aCBkPSJNMywxN2MwLjYsMCwxLTAuNCwxLTFWNi45QzQsNS4zLDUuMyw0LDYuOSw0SDE2YzAuNiwwLDEtMC40LDEtMXMtMC40LTEtMS0xSDYuOUM0LjIsMiwyLDQuMiwyLDYuOVYxNkMyLDE2LjYsMi40LDE3LDMsMTd6JiMxMDsmIzk7IE00MS4xLDJIMzJjLTAuNiwwLTEsMC40LTEsMXMwLjQsMSwxLDFoOS4xQzQyLjcsNCw0NCw1LjMsNDQsNi45VjE2YzAsMC42LDAuNCwxLDEsMXMxLTAuNCwxLTFWNi45QzQ2LDQuMiw0My44LDIsNDEuMSwyeiBNNDUsMzEmIzEwOyYjOTtjLTAuNiwwLTEsMC40LTEsMXY5LjFjMCwxLjYtMS4zLDIuOS0yLjksMi45SDMyYy0wLjYsMC0xLDAuNC0xLDFzMC40LDEsMSwxaDkuMWMyLjcsMCw0LjktMi4yLDQuOS00LjlWMzJDNDYsMzEuNCw0NS42LDMxLDQ1LDMxeiYjMTA7JiM5OyBNMTYsNDRINi45QzUuMyw0NCw0LDQyLjcsNCw0MS4xVjMyYzAtMC42LTAuNC0xLTEtMXMtMSwwLjQtMSwxdjkuMUMyLDQzLjgsNC4yLDQ2LDYuOSw0NkgxNmMwLjYsMCwxLTAuNCwxLTFTMTYuNiw0NCwxNiw0NHoiLz4mI3hhOzwvc3ZnPg==;" parent="2QvX6kYLDLws9FtZY6sG-20" vertex="1">
          <mxGeometry x="31" y="26" width="38" height="38" as="geometry" />
        </mxCell>
        <mxCell id="2QvX6kYLDLws9FtZY6sG-28" style="edgeStyle=orthogonalEdgeStyle;curved=1;rounded=0;orthogonalLoop=1;jettySize=auto;html=1;entryX=1;entryY=0.75;entryDx=0;entryDy=0;strokeWidth=2;fillColor=#d5e8d4;strokeColor=#82b366;dashed=1;" parent="1" source="2QvX6kYLDLws9FtZY6sG-25" target="2QvX6kYLDLws9FtZY6sG-8" edge="1">
          <mxGeometry relative="1" as="geometry" />
        </mxCell>
        <mxCell id="2QvX6kYLDLws9FtZY6sG-37" value="50%" style="edgeLabel;html=1;align=center;verticalAlign=middle;resizable=0;points=[];" parent="2QvX6kYLDLws9FtZY6sG-28" vertex="1" connectable="0">
          <mxGeometry x="-0.6471" y="6" relative="1" as="geometry">
            <mxPoint as="offset" />
          </mxGeometry>
        </mxCell>
        <mxCell id="2QvX6kYLDLws9FtZY6sG-30" style="edgeStyle=orthogonalEdgeStyle;curved=1;rounded=0;orthogonalLoop=1;jettySize=auto;html=1;entryX=0;entryY=0.75;entryDx=0;entryDy=0;strokeColor=#82b366;strokeWidth=2;fillColor=#d5e8d4;dashed=1;" parent="1" source="2QvX6kYLDLws9FtZY6sG-25" target="2QvX6kYLDLws9FtZY6sG-19" edge="1">
          <mxGeometry relative="1" as="geometry" />
        </mxCell>
        <mxCell id="2QvX6kYLDLws9FtZY6sG-38" value="50%" style="edgeLabel;html=1;align=center;verticalAlign=middle;resizable=0;points=[];" parent="2QvX6kYLDLws9FtZY6sG-30" vertex="1" connectable="0">
          <mxGeometry x="-0.6927" y="-7" relative="1" as="geometry">
            <mxPoint as="offset" />
          </mxGeometry>
        </mxCell>
        <mxCell id="2QvX6kYLDLws9FtZY6sG-25" value="DNS" style="shape=image;verticalLabelPosition=top;labelBackgroundColor=default;verticalAlign=bottom;aspect=fixed;imageAspect=0;image=data:image/svg+xml,PHN2ZyB4bWxuczp4bGluaz0iaHR0cDovL3d3dy53My5vcmcvMTk5OS94bGluayIgeG1sbnM9Imh0dHA6Ly93d3cudzMub3JnLzIwMDAvc3ZnIiB4bWw6c3BhY2U9InByZXNlcnZlIiBzdHlsZT0iZW5hYmxlLWJhY2tncm91bmQ6bmV3IDAgMCA0OCA0ODsiIHZpZXdCb3g9IjAgMCA0OCA0OCIgeT0iMHB4IiB4PSIwcHgiIGlkPSLlm77lsYJfMSIgdmVyc2lvbj0iMS4xIj4mI3hhOzxzdHlsZSB0eXBlPSJ0ZXh0L2NzcyI+JiN4YTsJLnN0MHtmaWxsOiMwNzAxMDI7fSYjeGE7PC9zdHlsZT4mI3hhOzxnIGlkPSLlm77lsYJfMV8xXyI+JiN4YTsJPHBhdGggZD0iTTQwLjIsMzguMmMtMC4xLDAuMy0wLjEsMC41LTAuMiwwLjdsLTEuOC03aC0xLjlsLTEuNiw2LjJsLTAuMSwwLjZsLTAuMi0wLjZsLTEuNi02LjJoLTJsMi45LDEwLjJoMS45JiMxMDsmIzk7JiM5O2wxLjctNi44YzAuMSwwLjMsMC4xLDAuNSwwLjIsMC44bDEuNCw1LjloMmwyLjgtMTAuMWMwLDAtMS45LDAtMiwwLjFMNDAuMiwzOC4yeiBNMjQsM0MxMi40LDMsMywxMi40LDMsMjRzOS40LDIxLDIxLDIxJiMxMDsmIzk7JiM5O2MyLjcsMCw1LjMtMC41LDcuNy0xLjVsLTAuNi0yYy0wLjMsMC4yLTAuNiwwLjMtMC44LDAuNGgtMC4xYzAuMi0wLjIsMC40LTAuMywwLjctMC41bC0wLjMtMWwtMS4zLDAuOWMtMS41LDEtMy4yLDEuNi01LDEuN3YtNy4yJiMxMDsmIzk7JiM5O2g0LjhMMjksMzUuNmwtMC4zLTAuOWgtNC40di05LjZoMTIuM2MtMC4xLDEuNy0wLjMsMy4yLTAuNiw0LjhoMWMwLjMtMS42LDAuNS0zLjIsMC42LTQuOWg1LjNjLTAuMSwxLjctMC40LDMuMy0wLjksNC45aDIuMSYjMTA7JiM5OyYjOTtDNDQuNiwyOCw0NSwyNi4xLDQ1LDI0QzQ1LDEyLjQsMzUuNiwzLDI0LDN6IE0xNy43LDYuMmMtMi4xLDEuNS00LDMuNy01LjQsNi40SDguOUMxMS4xLDkuNiwxNC4yLDcuNCwxNy43LDYuMnogTTguMSwxMy41aDQuMSYjMTA7JiM5OyYjOTtjLTEuNCwzLjEtMi4xLDYuNy0yLjEsMTAuNkg0LjlDNC45LDIwLjIsNi4xLDE2LjYsOC4xLDEzLjV6IE00LjksMjUuMUgxMGMwLjEsMy41LDAuOCw2LjgsMiw5LjZIOEM2LjMsMzEuOCw1LjEsMjguNiw0LjksMjUuMXomIzEwOyYjOTsmIzk7IE0xNy42LDQyYy0zLjUtMS4zLTYuNS0zLjUtOC43LTYuM2gzLjVjMSwxLjksMi4yLDMuNiwzLjYsNC45YzAuMSwwLjEsMC4xLDAuMSwwLjMsMC4yYzAuNSwwLjUsMSwwLjksMS42LDEuMiYjMTA7JiM5OyYjOTtDMTcuNyw0Mi4xLDE3LjcsNDIsMTcuNiw0MnogTTIzLjQsNDMuMWMtMi4yLTAuMS00LjMtMS02LjEtMi41bC0wLjEtMC4xYy0xLjQtMS4yLTIuNy0yLjgtMy43LTQuN2g5LjlMMjMuNCw0My4xeiBNMjMuNCwzNC43SDEzLjImIzEwOyYjOTsmIzk7Yy0xLjItMi44LTItNi4xLTIuMS05LjZoMTIuM0wyMy40LDM0Ljd6IE0yMy40LDI0LjFIMTFjMC0zLjksMC44LTcuNiwyLjItMTAuNmgxMC4yVjI0LjF6IE0yMy40LDEyLjVoLTkuNyYjMTA7JiM5OyYjOTtjMi4zLTQuMyw1LjgtNy4xLDkuNy03LjNWMTIuNXogTTM4LjksMTIuNWgtMy41QzM0LDkuOCwzMi4yLDcuNiwzMCw2LjFDMzMuNiw3LjQsMzYuNyw5LjYsMzguOSwxMi41eiBNMjQuNCw1LjImIzEwOyYjOTsmIzk7YzMuOSwwLjIsNy4zLDMsOS42LDcuM2gtOS42VjUuMnogTTI0LjQsMjQuMVYxMy41aDEwLjFjMS40LDMsMi4yLDYuNywyLjIsMTAuNkgyNC40eiBNMzcuNywyNC4xYzAtMy45LTAuOC03LjUtMi4xLTEwLjZoNC4xJiMxMDsmIzk7JiM5O2MyLDMsMy4yLDYuNywzLjIsMTAuNkgzNy43eiIgY2xhc3M9InN0MCIvPiYjeGE7PC9nPiYjeGE7PC9zdmc+;imageBackground=none;labelPosition=right;align=left;" parent="1" vertex="1">
          <mxGeometry x="430" y="120" width="48" height="48" as="geometry" />
        </mxCell>
        <mxCell id="2QvX6kYLDLws9FtZY6sG-36" style="edgeStyle=orthogonalEdgeStyle;curved=1;rounded=0;orthogonalLoop=1;jettySize=auto;html=1;fillColor=#d5e8d4;strokeColor=#82b366;strokeWidth=2;" parent="1" source="2QvX6kYLDLws9FtZY6sG-33" target="2QvX6kYLDLws9FtZY6sG-25" edge="1">
          <mxGeometry relative="1" as="geometry" />
        </mxCell>
        <mxCell id="2QvX6kYLDLws9FtZY6sG-33" value="Client" style="sketch=0;outlineConnect=0;fontColor=#232F3E;gradientColor=none;strokeColor=#232F3E;fillColor=#ffffff;dashed=0;verticalLabelPosition=top;verticalAlign=bottom;align=center;html=1;fontSize=12;fontStyle=0;aspect=fixed;shape=mxgraph.aws4.resourceIcon;resIcon=mxgraph.aws4.client;labelPosition=center;" parent="1" vertex="1">
          <mxGeometry x="424" y="20" width="60" height="60" as="geometry" />
        </mxCell>
      </root>
    </mxGraphModel>
  </diagram>
</mxfile>
